. 
 
 
http://www.torrentday.com :  Your Key To The Scene.


Now TvTeam with [No-RAR] Releases.



(((((((((((((= Enjoy No RAR releases =))))))))))))))))))))



...................................NFO:....................................

.*******************************************************************************
                    The.Abducted.2009.DVDRip.AC3.X264-BARC0DE
*******************************************************************************

-------------------------------------------------------------------------------
                              General Information
-------------------------------------------------------------------------------
Type.................: Movie
Name.................: The Abducted AKA.Match.Dead
Movie Information....: http://www.imdb.com/title/tt1218507/
Genre................: Thriller

-------------------------------------------------------------------------------
                                    PLOT
-------------------------------------------------------------------------------
Valora was just your average, all American girl; looking for love in an online world. 
Then she met Ridley. He was strong, good looking, and best of all, he listened. 
So she agreed to meet him. It was a public place after all. What could happen?
Ridley was just your average, all American psychopath; looking for love in an online world. 
Then he met Valora. She was strong, good looking, and best of all, she listened. 
So he arranged to meet her. It would be a public place; after all, he was careful.
Shortly after their meeting, Ridley kidnaps Valora and takes her on the date of a lifetime. 
She can stay and talk or she can run; her choice. He likes when they run. It becomes sport. 
Valora chooses not to run and the courtship begins.

-------------------------------------------------------------------------------
                                    CAST
-------------------------------------------------------------------------------
James Ray		... 	Ridley Thompson
Kathleen Benner		... 	Valora Smith
Michael Harrelson	... 	Grandpa Smith
Ashley Francis		... 	Young Valora Smith
Greg Joseph		... 	Guy
Autumn			... 	Internet Girl
Matthew Bowman		... 	Jeep Guy #2 (as Matt Bowman)
Mike De Alba		... 	Jeep Guy #1
Penelope Jones		... 	Dead Girl
Penelope Jones		... 	Dead Girl

-------------------------------------------------------------------------------
                                    MEDiA iNFO
-------------------------------------------------------------------------------

General
Complete name                    : The.Abducted.2009.DVDRip.AC3.X264-BARC0DE.mkv
Format                           : Matroska
File size                        : 1.46 GiB
Duration                         : 1h 22mn
Overall bit rate                 : 2 527 Kbps


Video
ID                               : 1
Format                           : AVC
Format/Info                      : Advanced Video Codec
Format profile                   : High@L2.2
Format settings, CABAC           : Yes
Format settings, ReFrames        : 3 frames
Muxing mode                      : Container profile=Unknown@2.2
Codec ID                         : V_MPEG4/ISO/AVC
Duration                         : 1h 22mn
Bit rate                         : 2 093 Kbps
Nominal bit rate                 : 2 138 Kbps
Width                            : 720 pixels
Height                           : 304 pixels
Display aspect ratio             : 2.35:1
Frame rate                       : 20.662 fps
Resolution                       : 8 bits
Colorimetry                      : 4:2:0
Scan type                        : Progressive
Bits/(Pixel*Frame)               : 0.463
Stream size                      : 1.21 GiB (83%)
Writing library                  : x264 core 79
Encoding settings                : cabac=1 / ref=3 / deblock=1:0:0 / analyse=0x3:0x113 / me=hex / subme=7 / psy=1 / psy_rd=1.0:0.0 / mixed_ref=1 / me_range=16 / chroma_me=1 / trellis=1 / 8x8dct=1 / cqm=0 / deadzone=21,11 / chroma_qp_offset=-2 / threads=1 / nr=0 / decimate=1 / mbaff=0 / constrained_intra=0 / bframes=3 / b_pyramid=0 / b_adapt=2 / b_bias=0 / direct=1 / wpredb=1 / wpredp=2 / keyint=250 / keyint_min=25 / scenecut=40 / rc_lookahead=50 / rc=2pass / mbtree=1 / bitrate=2138 / ratetol=1.0 / qcomp=0.60 / qpmin=10 / qpmax=51 / qpstep=4 / cplxblur=20.0 / qblur=0.5 / ip_ratio=1.40 / aq=1:1.00


Audio
ID                               : 2
Format                           : AC-3
Format/Info                      : Audio Coding 3
Format_Settings_ModeExtension    : CM (complete main)
Codec ID                         : A_AC3
Duration                         : 1h 22mn
Bit rate mode                    : Constant
Bit rate                         : 384 Kbps
Channel(s)                       : 6 channels
Channel positions                : Front: L C R, Side: L R, LFE
Sampling rate                    : 48.0 KHz
Stream size                      : 227 MiB (15%)
Language                         : English

Menu
00:00:00.000                     : Chapter 1
00:03:51.880                     : Chapter 2
00:08:42.760                     : Chapter 3
00:17:40.880                     : Chapter 4
00:23:51.420                     : Chapter 5
00:27:37.120                     : Chapter 6
00:39:09.350                     : Chapter 7
00:47:38.180                     : Chapter 8
00:52:55.760                     : Chapter 9
01:00:27.410                     : Chapter 10
01:10:35.600                     : Chapter 11
01:14:49.040                     : Chapter 12
01:20:43.370                     : Chapter 13
01:22:48.080                     : Chapter 14